<?xml version="1.0" encoding="utf-8" standalone="no"?>
<!DOCTYPE svg PUBLIC "-//W3C//DTD SVG 1.1//EN"
  "http://www.w3.org/Graphics/SVG/1.1/DTD/svg11.dtd">
<svg xmlns:xlink="http://www.w3.org/1999/xlink" width="337.68pt" height="335.52pt" viewBox="0 0 337.68 335.52" xmlns="http://www.w3.org/2000/svg" version="1.1">
 <metadata>
  <rdf:RDF xmlns:dc="http://purl.org/dc/elements/1.1/" xmlns:cc="http://creativecommons.org/ns#" xmlns:rdf="http://www.w3.org/1999/02/22-rdf-syntax-ns#">
   <cc:Work>
    <dc:type rdf:resource="http://purl.org/dc/dcmitype/StillImage"/>
    <dc:date>2026-04-14T07:28:55.415765</dc:date>
    <dc:format>image/svg+xml</dc:format>
    <dc:creator>
     <cc:Agent>
      <dc:title>Matplotlib v3.10.3, https://matplotlib.org/</dc:title>
     </cc:Agent>
    </dc:creator>
   </cc:Work>
  </rdf:RDF>
 </metadata>
 <defs>
  <style type="text/css">*{stroke-linejoin: round; stroke-linecap: butt}</style>
 </defs>
 <g id="figure_1">
  <g id="patch_1">
   <path d="M 0 335.52 
L 337.68 335.52 
L 337.68 0 
L 0 0 
z
" style="fill: #121218"/>
  </g>
  <g id="axes_1">
   <g id="patch_2">
    <path d="M 168.84 24.7248 
L 242.496 107.8848 
L 215.712 274.2048 
L 121.968 274.2048 
L 95.184 107.8848 
z
" clip-path="url(#p5648dbaace)" style="fill: #3b275f; stroke: #a78bfa; stroke-width: 4"/>
   </g>
   <g id="patch_3">
    <path d="M 168.84 24.7248 
L 95.184 107.8848 
L 121.968 274.2048 
L 158.796 174.4128 
z
" clip-path="url(#p5648dbaace)" style="fill: #2a1d45; opacity: 0.95"/>
   </g>
   <g id="patch_4">
    <path d="M 168.84 24.7248 
L 242.496 107.8848 
L 215.712 274.2048 
L 178.884 174.4128 
z
" clip-path="url(#p5648dbaace)" style="fill: #5b3b8c; opacity: 0.9"/>
   </g>
   <g id="patch_5">
    <path d="M 158.796 174.4128 
L 178.884 174.4128 
L 215.712 274.2048 
L 121.968 274.2048 
z
" clip-path="url(#p5648dbaace)" style="fill: #7c5ab2; opacity: 0.35"/>
   </g>
   <g id="patch_6">
    <path d="M 168.84 164.4336 
C 180.3827 164.4336 191.454194 162.330657 199.616116 158.58792 
C 207.778037 154.845183 212.364 149.76823 212.364 144.4752 
C 212.364 139.18217 207.778037 134.105217 199.616116 130.36248 
C 191.454194 126.619743 180.3827 124.5168 168.84 124.5168 
C 157.2973 124.5168 146.225806 126.619743 138.063884 130.36248 
C 129.901963 134.105217 125.316 139.18217 125.316 144.4752 
C 125.316 149.76823 129.901963 154.845183 138.063884 158.58792 
C 146.225806 162.330657 157.2973 164.4336 168.84 164.4336 
z
" clip-path="url(#p5648dbaace)" style="fill: #121218; stroke: #d8ccff; stroke-width: 2.5; stroke-linejoin: miter"/>
   </g>
   <g id="patch_7">
    <path d="M 168.84 156.1176 
C 171.94765 156.1176 174.928437 154.890883 177.125877 152.70762 
C 179.323318 150.524357 180.558 147.562801 180.558 144.4752 
C 180.558 141.387599 179.323318 138.426043 177.125877 136.24278 
C 174.928437 134.059517 171.94765 132.8328 168.84 132.8328 
C 165.73235 132.8328 162.751563 134.059517 160.554123 136.24278 
C 158.356682 138.426043 157.122 141.387599 157.122 144.4752 
C 157.122 147.562801 158.356682 150.524357 160.554123 152.70762 
C 162.751563 154.890883 165.73235 156.1176 168.84 156.1176 
z
" clip-path="url(#p5648dbaace)" style="fill: #d8ccff"/>
   </g>
   <g id="patch_8">
    <path d="M 172.8576 143.80992 
C 173.83429 143.80992 174.771109 143.42438 175.461733 142.738212 
C 176.152357 142.052044 176.5404 141.121269 176.5404 140.15088 
C 176.5404 139.180491 176.152357 138.249716 175.461733 137.563548 
C 174.771109 136.87738 173.83429 136.49184 172.8576 136.49184 
C 171.88091 136.49184 170.944091 136.87738 170.253467 137.563548 
C 169.562843 138.249716 169.1748 139.180491 169.1748 140.15088 
C 169.1748 141.121269 169.562843 142.052044 170.253467 142.738212 
C 170.944091 143.42438 171.88091 143.80992 172.8576 143.80992 
z
" clip-path="url(#p5648dbaace)" style="fill: #121218"/>
   </g>
   <g id="patch_9">
    <path d="M 164.8224 139.15296 
C 165.35514 139.15296 165.866132 138.942666 166.242836 138.568392 
C 166.61954 138.194118 166.8312 137.686423 166.8312 137.15712 
C 166.8312 136.627817 166.61954 136.120122 166.242836 135.745848 
C 165.866132 135.371574 165.35514 135.16128 164.8224 135.16128 
C 164.28966 135.16128 163.778668 135.371574 163.401964 135.745848 
C 163.02526 136.120122 162.8136 136.627817 162.8136 137.15712 
C 162.8136 137.686423 163.02526 138.194118 163.401964 138.568392 
C 163.778668 138.942666 164.28966 139.15296 164.8224 139.15296 
z
" clip-path="url(#p5648dbaace)" style="fill: #ffffff; opacity: 0.9"/>
   </g>
  </g>
 </g>
 <defs>
  <clipPath id="p5648dbaace">
   <rect x="1.44" y="1.44" width="334.8" height="332.64"/>
  </clipPath>
 </defs>
</svg>
